Handbrake Version: 20250906052339-dddf75f75-makepkg (2025100401)
[07:52:03] gtkgui: Modified Custom Preset: /Custom/NVENC (No Filters)
[07:52:03] Starting work at: Tue Dec 23 07:52:03 2025

[07:52:03] 1 job(s) to process
[07:52:03] json job:
{
    "Audio": {
        "AudioList": [
            {
                "Bitrate": 160,
                "CompressionLevel": -1.0,
                "DRC": 0.0,
                "DitherMethod": "auto",
                "Encoder": "av_aac",
                "Gain": 0.0,
                "Mixdown": "stereo",
                "Name": "Stereo",
                "NormalizeMixLevel": false,
                "PresetEncoder": "av_aac",
                "Quality": -3.0,
                "Samplerate": 0,
                "Track": 0
            }
        ],
        "CopyMask": [
            "copy:aac"
        ],
        "FallbackEncoder": "av_aac"
    },
    "Destination": {
        "AlignAVStart": false,
        "ChapterList": [
            {
                "Duration": {
                    "Hours": 0,
                    "Minutes": 0,
                    "Seconds": 7,
                    "Ticks": 645030
                },
                "Name": ""
            }
        ],
        "ChapterMarkers": false,
        "File": "/home/sudar/Downloads/AABDAY.mkv",
        "InlineParameterSets": false,
        "Mux": "mkv",
        "Options": {
            "IpodAtom": false,
            "Optimize": false
        }
    },
    "Filters": {
        "FilterList": [
            {
                "ID": 11,
                "Settings": {
                    "mode": 0
                }
            },
            {
                "ID": 20,
                "Settings": {
                    "crop-bottom": 0,
                    "crop-left": 0,
                    "crop-right": 0,
                    "crop-top": 0,
                    "height": 1080,
                    "width": 1920
                }
            },
            {
                "ID": 28,
                "Settings": {
                    "bottom": "0",
                    "color": "black",
                    "left": "0",
                    "right": "0",
                    "top": "0"
                }
            }
        ]
    },
    "Metadata": {
        "CreationTime": "2025-12-22T15:22:12.000000Z"
    },
    "PAR": {
        "Den": 1,
        "Num": 1
    },
    "SequenceID": 0,
    "Source": {
        "Angle": 0,
        "HWDecode": 0,
        "KeepDuplicateTitles": false,
        "Path": "/mnt/DVR/AABDAY/AABDAY.mkv",
        "Range": {
            "End": 1,
            "Start": 1,
            "Type": "chapter"
        },
        "Title": 1
    },
    "Subtitle": {
        "Search": {
            "Burn": true,
            "Default": false,
            "Enable": false,
            "Forced": false
        },
        "SubtitleList": []
    },
    "Video": {
        "AdapterIndex": -1,
        "AsyncDepth": 0,
        "ChromaLocation": 0,
        "ColorInputFormat": 0,
        "ColorMatrix": 1,
        "ColorOutputFormat": 0,
        "ColorPrimaries": 1,
        "ColorRange": 0,
        "ColorTransfer": 1,
        "Encoder": "nvenc_h264",
        "HardwareDecode": 0,
        "Level": "auto",
        "MultiPass": false,
        "Options": "",
        "PasshtruHDRDynamicMetadata": 6,
        "Preset": "medium",
        "Profile": "auto",
        "Quality": 16.0,
        "Tune": "",
        "Turbo": false
    }
}
[07:52:03] CPU: Intel(R) Xeon(R) W-2135 CPU @ 3.70GHz
[07:52:03]  - logical processor count: 12
[07:52:03] Intel Quick Sync Video support: no
[07:52:03] hb_scan: path=/mnt/DVR/AABDAY/AABDAY.mkv, title_index=1
Input #0, matroska,webm, from '/mnt/DVR/AABDAY/AABDAY.mkv':
  Metadata:
    TIMECODE        : 01:00:00:00
    creation_time   : 2025-12-22T15:22:12.000000Z
    ENCODER         : Lavf60.3.100
  Duration: 00:00:07.17, start: 0.000000, bitrate: 49110 kb/s
  Stream #0:0: Video: prores (Standard) (apcn / 0x6E637061), yuv422p10le(tv, bt709, progressive), 1920x1080, 30 fps, 30 tbr, 1k tbn
      Metadata:
        ENCODER         : Apple ProRes 422
        DURATION        : 00:00:07.166000000
  Stream #0:1: Audio: flac, 48000 Hz, stereo, s32 (24 bit) (default)
      Metadata:
        DURATION        : 00:00:07.167000000
[07:52:03] scan: decoding previews for title 1
[07:52:03] scan: audio 0x1: flac, rate=48000Hz, bitrate=1 Unknown (FLAC, 2.0 ch)
[07:52:03] scan: 10 previews, 1920x1080, 30.000 fps, autocrop = 0/0/0/0, aspect 16:9, PAR 1:1, color profile: 1-1-1, chroma location: unspecified
[07:52:03] libhb: scan thread found 1 valid title(s)
[07:52:03] Starting Task: Encoding Pass
[07:52:03] work: skipping crop/scale filter
[07:52:03] job configuration:
[07:52:03]  * source
[07:52:03]    + /mnt/DVR/AABDAY/AABDAY.mkv
[07:52:03]    + title 1, chapter(s) 1 to 1
[07:52:03]    + container: matroska,webm
[07:52:03]    + data rate: 49110 kbps
[07:52:03]  * destination
[07:52:03]    + /home/sudar/Downloads/AABDAY.mkv
[07:52:03]    + container: Matroska (libavformat)
[07:52:03]  * video track
[07:52:03]    + decoder: prores 10-bit (yuv422p10le)
[07:52:03]    + filters
[07:52:03]      + Framerate Shaper (mode=0)
[07:52:03]        + frame rate: same as source (around 30.000 fps)
[07:52:03]      + Pad (color=black:top=0:bottom=0:left=0:right=0)
[07:52:03]      + Format (format=yuv420p)
[07:52:03]    + Output geometry
[07:52:03]      + storage dimensions: 1920 x 1080
[07:52:03]      + pixel aspect ratio: 1 : 1
[07:52:03]      + display dimensions: 1920 x 1080
[07:52:03]    + encoder: H.264 (NVEnc)
[07:52:03]      + preset:  medium
[07:52:03]      + profile: auto
[07:52:03]      + level:   auto
[07:52:03]      + quality: 16.00 (CQ)
[07:52:03]      + color profile: 1-1-1
[07:52:03]      + color range: tv
[07:52:03]      + chroma location: unspecified
[07:52:03]  * audio track 1
[07:52:03]    + name: Stereo
[07:52:03]    + decoder: Unknown (FLAC, 2.0 ch) (track 1, id 0x1)
[07:52:03]      + samplerate: 48000 Hz
[07:52:03]    + mixdown: Stereo
[07:52:03]    + encoder: AAC (libavcodec)
[07:52:03]      + bitrate: 160 kbps, samplerate: 48000 Hz
[07:52:03] sync: expecting 215 video frames
[07:52:03] encavcodecInit: H.264 (Nvidia NVENC)
[07:52:03] encavcodec: encoding at rc=vbr, 16.00
[07:52:03] encavcodec: encoding with stored aspect 1/1
[07:52:03] encavcodecInit: Unknown avcodec option s12m_tc
[07:52:03] sync: first pts video is 0
[07:52:03] sync: Chapter 1 at frame 1 time 0
[07:52:04] sync: first pts audio 0x1 is 0
[07:52:04] reader: done. 1 scr changes
[07:52:04] work: average encoding speed for job is 0.000000 fps
[07:52:04] vfr: 215 frames output, 0 dropped
[07:52:04] vfr: lost time: 0 (0 frames)
[07:52:04] vfr: gained time: 0 (0 frames) (0 not accounted for)
[07:52:04] flac-decoder done: 75 frames, 0 decoder errors
[07:52:04] prores-decoder done: 215 frames, 0 decoder errors
[07:52:04] sync: got 215 frames, 215 expected
[07:52:04] sync: framerate min 30.000 fps, max 30.000 fps, avg 30.000 fps
[07:52:05] mux: track 0, 215 frames, 6415485 bytes, 7128.32 kbps, fifo 256
[07:52:05] mux: track 1, 336 frames, 31609 bytes, 35.12 kbps, fifo 512
[07:52:05] Finished work at: Tue Dec 23 07:52:05 2025

[07:52:05] libhb: work result = 0
